<mxfile host="app.diagrams.net" modified="2023-08-10T00:49:36.309Z" agent="Mozilla/5.0 (Macintosh; Intel Mac OS X 10_15_7) AppleWebKit/537.36 (KHTML, like Gecko) Chrome/114.0.0.0 Safari/537.36" etag="u2BJQAUMZxZWOdiDVSIQ" version="21.5.0" type="device">
  <diagram name="Page-1" id="5XDK7FmxCSv5v1ikdPoh">
    <mxGraphModel dx="1876" dy="625" grid="1" gridSize="10" guides="1" tooltips="1" connect="1" arrows="1" fold="1" page="1" pageScale="1" pageWidth="850" pageHeight="1100" math="0" shadow="0">
      <root>
        <mxCell id="0" />
        <mxCell id="1" parent="0" />
        <mxCell id="UyWIYiug9bjws0ROb6PQ-18" style="edgeStyle=orthogonalEdgeStyle;rounded=0;orthogonalLoop=1;jettySize=auto;html=1;entryX=0.5;entryY=0;entryDx=0;entryDy=0;fillColor=#f8cecc;strokeColor=#000000;strokeWidth=1;" parent="1" source="UyWIYiug9bjws0ROb6PQ-1" target="UyWIYiug9bjws0ROb6PQ-5" edge="1">
          <mxGeometry relative="1" as="geometry" />
        </mxCell>
        <mxCell id="UyWIYiug9bjws0ROb6PQ-1" value="&lt;font style=&quot;font-size: 24px;&quot;&gt;&lt;b&gt;A&lt;/b&gt;&lt;/font&gt;" style="ellipse;whiteSpace=wrap;html=1;fillColor=#d5e8d4;strokeColor=#82b366;" parent="1" vertex="1">
          <mxGeometry x="390" y="80" width="70" height="70" as="geometry" />
        </mxCell>
        <mxCell id="UyWIYiug9bjws0ROb6PQ-5" value="&lt;font style=&quot;font-size: 24px;&quot;&gt;&lt;b&gt;D&lt;br&gt;&lt;/b&gt;&lt;/font&gt;" style="ellipse;whiteSpace=wrap;html=1;fillColor=#d5e8d4;strokeColor=#82b366;" parent="1" vertex="1">
          <mxGeometry x="390" y="350" width="70" height="70" as="geometry" />
        </mxCell>
        <mxCell id="UyWIYiug9bjws0ROb6PQ-16" style="edgeStyle=orthogonalEdgeStyle;rounded=0;orthogonalLoop=1;jettySize=auto;html=1;exitX=0.5;exitY=0;exitDx=0;exitDy=0;entryX=1;entryY=0.5;entryDx=0;entryDy=0;fillColor=#f8cecc;strokeColor=#000000;strokeWidth=1;" parent="1" source="UyWIYiug9bjws0ROb6PQ-6" target="UyWIYiug9bjws0ROb6PQ-1" edge="1">
          <mxGeometry relative="1" as="geometry" />
        </mxCell>
        <mxCell id="UyWIYiug9bjws0ROb6PQ-19" style="edgeStyle=orthogonalEdgeStyle;rounded=0;orthogonalLoop=1;jettySize=auto;html=1;entryX=1;entryY=0.5;entryDx=0;entryDy=0;fillColor=#f8cecc;strokeColor=#000000;strokeWidth=1;" parent="1" source="UyWIYiug9bjws0ROb6PQ-6" target="UyWIYiug9bjws0ROb6PQ-7" edge="1">
          <mxGeometry relative="1" as="geometry">
            <Array as="points">
              <mxPoint x="470" y="220" />
              <mxPoint x="470" y="275" />
            </Array>
          </mxGeometry>
        </mxCell>
        <mxCell id="UyWIYiug9bjws0ROb6PQ-6" value="&lt;font style=&quot;font-size: 24px;&quot;&gt;&lt;b&gt;C&lt;/b&gt;&lt;/font&gt;" style="ellipse;whiteSpace=wrap;html=1;fillColor=#d5e8d4;strokeColor=#82b366;" parent="1" vertex="1">
          <mxGeometry x="550" y="185" width="70" height="70" as="geometry" />
        </mxCell>
        <mxCell id="UyWIYiug9bjws0ROb6PQ-11" style="edgeStyle=orthogonalEdgeStyle;rounded=0;orthogonalLoop=1;jettySize=auto;html=1;entryX=0;entryY=1;entryDx=0;entryDy=0;fillColor=#f8cecc;strokeColor=#000000;strokeWidth=1;" parent="1" source="UyWIYiug9bjws0ROb6PQ-7" target="UyWIYiug9bjws0ROb6PQ-1" edge="1">
          <mxGeometry relative="1" as="geometry">
            <Array as="points">
              <mxPoint x="400" y="250" />
            </Array>
          </mxGeometry>
        </mxCell>
        <mxCell id="UyWIYiug9bjws0ROb6PQ-12" style="edgeStyle=orthogonalEdgeStyle;rounded=0;orthogonalLoop=1;jettySize=auto;html=1;entryX=0;entryY=0.5;entryDx=0;entryDy=0;fillColor=#f8cecc;strokeColor=#000000;strokeWidth=1;" parent="1" source="UyWIYiug9bjws0ROb6PQ-7" target="UyWIYiug9bjws0ROb6PQ-5" edge="1">
          <mxGeometry relative="1" as="geometry">
            <Array as="points">
              <mxPoint x="235" y="385" />
            </Array>
          </mxGeometry>
        </mxCell>
        <mxCell id="UyWIYiug9bjws0ROb6PQ-14" style="edgeStyle=orthogonalEdgeStyle;rounded=0;orthogonalLoop=1;jettySize=auto;html=1;entryX=0;entryY=0.5;entryDx=0;entryDy=0;fillColor=#f8cecc;strokeColor=#000000;strokeWidth=1;" parent="1" source="UyWIYiug9bjws0ROb6PQ-7" target="UyWIYiug9bjws0ROb6PQ-6" edge="1">
          <mxGeometry relative="1" as="geometry">
            <Array as="points">
              <mxPoint x="470" y="275" />
              <mxPoint x="470" y="220" />
            </Array>
          </mxGeometry>
        </mxCell>
        <mxCell id="UyWIYiug9bjws0ROb6PQ-7" value="&lt;font style=&quot;font-size: 24px;&quot;&gt;&lt;b&gt;B&lt;/b&gt;&lt;/font&gt;" style="ellipse;whiteSpace=wrap;html=1;fillColor=#d5e8d4;strokeColor=#82b366;" parent="1" vertex="1">
          <mxGeometry x="200" y="240" width="70" height="70" as="geometry" />
        </mxCell>
        <mxCell id="UyWIYiug9bjws0ROb6PQ-20" value="Ratings" style="swimlane;fontStyle=0;childLayout=stackLayout;horizontal=1;startSize=30;horizontalStack=0;resizeParent=1;resizeParentMax=0;resizeLast=0;collapsible=1;marginBottom=0;whiteSpace=wrap;html=1;" parent="1" vertex="1">
          <mxGeometry x="630" y="160" width="90" height="120" as="geometry" />
        </mxCell>
        <mxCell id="UyWIYiug9bjws0ROb6PQ-21" value="Item A = 5" style="text;strokeColor=none;fillColor=none;align=left;verticalAlign=middle;spacingLeft=4;spacingRight=4;overflow=hidden;points=[[0,0.5],[1,0.5]];portConstraint=eastwest;rotatable=0;whiteSpace=wrap;html=1;" parent="UyWIYiug9bjws0ROb6PQ-20" vertex="1">
          <mxGeometry y="30" width="90" height="30" as="geometry" />
        </mxCell>
        <mxCell id="UyWIYiug9bjws0ROb6PQ-22" value="Item B = 4" style="text;strokeColor=none;fillColor=none;align=left;verticalAlign=middle;spacingLeft=4;spacingRight=4;overflow=hidden;points=[[0,0.5],[1,0.5]];portConstraint=eastwest;rotatable=0;whiteSpace=wrap;html=1;" parent="UyWIYiug9bjws0ROb6PQ-20" vertex="1">
          <mxGeometry y="60" width="90" height="30" as="geometry" />
        </mxCell>
        <mxCell id="UyWIYiug9bjws0ROb6PQ-23" value="Item C = N/A" style="text;strokeColor=none;fillColor=none;align=left;verticalAlign=middle;spacingLeft=4;spacingRight=4;overflow=hidden;points=[[0,0.5],[1,0.5]];portConstraint=eastwest;rotatable=0;whiteSpace=wrap;html=1;" parent="UyWIYiug9bjws0ROb6PQ-20" vertex="1">
          <mxGeometry y="90" width="90" height="30" as="geometry" />
        </mxCell>
        <mxCell id="UyWIYiug9bjws0ROb6PQ-24" value="Ratings" style="swimlane;fontStyle=0;childLayout=stackLayout;horizontal=1;startSize=30;horizontalStack=0;resizeParent=1;resizeParentMax=0;resizeLast=0;collapsible=1;marginBottom=0;whiteSpace=wrap;html=1;" parent="1" vertex="1">
          <mxGeometry x="470" y="320" width="90" height="120" as="geometry" />
        </mxCell>
        <mxCell id="UyWIYiug9bjws0ROb6PQ-25" value="Item A = 3" style="text;strokeColor=none;fillColor=none;align=left;verticalAlign=middle;spacingLeft=4;spacingRight=4;overflow=hidden;points=[[0,0.5],[1,0.5]];portConstraint=eastwest;rotatable=0;whiteSpace=wrap;html=1;" parent="UyWIYiug9bjws0ROb6PQ-24" vertex="1">
          <mxGeometry y="30" width="90" height="30" as="geometry" />
        </mxCell>
        <mxCell id="UyWIYiug9bjws0ROb6PQ-26" value="Item B = N/A" style="text;strokeColor=none;fillColor=none;align=left;verticalAlign=middle;spacingLeft=4;spacingRight=4;overflow=hidden;points=[[0,0.5],[1,0.5]];portConstraint=eastwest;rotatable=0;whiteSpace=wrap;html=1;" parent="UyWIYiug9bjws0ROb6PQ-24" vertex="1">
          <mxGeometry y="60" width="90" height="30" as="geometry" />
        </mxCell>
        <mxCell id="UyWIYiug9bjws0ROb6PQ-27" value="Item C = 4" style="text;strokeColor=none;fillColor=none;align=left;verticalAlign=middle;spacingLeft=4;spacingRight=4;overflow=hidden;points=[[0,0.5],[1,0.5]];portConstraint=eastwest;rotatable=0;whiteSpace=wrap;html=1;" parent="UyWIYiug9bjws0ROb6PQ-24" vertex="1">
          <mxGeometry y="90" width="90" height="30" as="geometry" />
        </mxCell>
        <mxCell id="UyWIYiug9bjws0ROb6PQ-28" value="Ratings" style="swimlane;fontStyle=0;childLayout=stackLayout;horizontal=1;startSize=30;horizontalStack=0;resizeParent=1;resizeParentMax=0;resizeLast=0;collapsible=1;marginBottom=0;whiteSpace=wrap;html=1;" parent="1" vertex="1">
          <mxGeometry x="100" y="215" width="90" height="120" as="geometry" />
        </mxCell>
        <mxCell id="UyWIYiug9bjws0ROb6PQ-29" value="Item A = N/A" style="text;strokeColor=none;fillColor=none;align=left;verticalAlign=middle;spacingLeft=4;spacingRight=4;overflow=hidden;points=[[0,0.5],[1,0.5]];portConstraint=eastwest;rotatable=0;whiteSpace=wrap;html=1;" parent="UyWIYiug9bjws0ROb6PQ-28" vertex="1">
          <mxGeometry y="30" width="90" height="30" as="geometry" />
        </mxCell>
        <mxCell id="UyWIYiug9bjws0ROb6PQ-30" value="Item B = N/A" style="text;strokeColor=none;fillColor=none;align=left;verticalAlign=middle;spacingLeft=4;spacingRight=4;overflow=hidden;points=[[0,0.5],[1,0.5]];portConstraint=eastwest;rotatable=0;whiteSpace=wrap;html=1;" parent="UyWIYiug9bjws0ROb6PQ-28" vertex="1">
          <mxGeometry y="60" width="90" height="30" as="geometry" />
        </mxCell>
        <mxCell id="UyWIYiug9bjws0ROb6PQ-31" value="Item C = 4" style="text;strokeColor=none;fillColor=none;align=left;verticalAlign=middle;spacingLeft=4;spacingRight=4;overflow=hidden;points=[[0,0.5],[1,0.5]];portConstraint=eastwest;rotatable=0;whiteSpace=wrap;html=1;" parent="UyWIYiug9bjws0ROb6PQ-28" vertex="1">
          <mxGeometry y="90" width="90" height="30" as="geometry" />
        </mxCell>
        <mxCell id="UyWIYiug9bjws0ROb6PQ-32" value="Ratings" style="swimlane;fontStyle=0;childLayout=stackLayout;horizontal=1;startSize=30;horizontalStack=0;resizeParent=1;resizeParentMax=0;resizeLast=0;collapsible=1;marginBottom=0;whiteSpace=wrap;html=1;" parent="1" vertex="1">
          <mxGeometry x="290" y="55" width="90" height="120" as="geometry" />
        </mxCell>
        <mxCell id="UyWIYiug9bjws0ROb6PQ-33" value="Item A = 1" style="text;strokeColor=none;fillColor=none;align=left;verticalAlign=middle;spacingLeft=4;spacingRight=4;overflow=hidden;points=[[0,0.5],[1,0.5]];portConstraint=eastwest;rotatable=0;whiteSpace=wrap;html=1;" parent="UyWIYiug9bjws0ROb6PQ-32" vertex="1">
          <mxGeometry y="30" width="90" height="30" as="geometry" />
        </mxCell>
        <mxCell id="UyWIYiug9bjws0ROb6PQ-34" value="Item B = 1" style="text;strokeColor=none;fillColor=none;align=left;verticalAlign=middle;spacingLeft=4;spacingRight=4;overflow=hidden;points=[[0,0.5],[1,0.5]];portConstraint=eastwest;rotatable=0;whiteSpace=wrap;html=1;" parent="UyWIYiug9bjws0ROb6PQ-32" vertex="1">
          <mxGeometry y="60" width="90" height="30" as="geometry" />
        </mxCell>
        <mxCell id="UyWIYiug9bjws0ROb6PQ-35" value="Item C = 1" style="text;strokeColor=none;fillColor=none;align=left;verticalAlign=middle;spacingLeft=4;spacingRight=4;overflow=hidden;points=[[0,0.5],[1,0.5]];portConstraint=eastwest;rotatable=0;whiteSpace=wrap;html=1;" parent="UyWIYiug9bjws0ROb6PQ-32" vertex="1">
          <mxGeometry y="90" width="90" height="30" as="geometry" />
        </mxCell>
        <mxCell id="UyWIYiug9bjws0ROb6PQ-50" value="Similarities" style="swimlane;fontStyle=0;childLayout=stackLayout;horizontal=1;startSize=30;horizontalStack=0;resizeParent=1;resizeParentMax=0;resizeLast=0;collapsible=1;marginBottom=0;whiteSpace=wrap;html=1;fillColor=#d5e8d4;strokeColor=#82b366;" parent="1" vertex="1">
          <mxGeometry x="-120" y="215" width="180" height="120" as="geometry" />
        </mxCell>
        <mxCell id="UyWIYiug9bjws0ROb6PQ-51" value="Item A &amp;amp; Item B: 0.5" style="text;strokeColor=none;fillColor=none;align=left;verticalAlign=middle;spacingLeft=4;spacingRight=4;overflow=hidden;points=[[0,0.5],[1,0.5]];portConstraint=eastwest;rotatable=0;whiteSpace=wrap;html=1;" parent="UyWIYiug9bjws0ROb6PQ-50" vertex="1">
          <mxGeometry y="30" width="180" height="30" as="geometry" />
        </mxCell>
        <mxCell id="UyWIYiug9bjws0ROb6PQ-52" value="Item A &amp;amp; Item C: 0.8" style="text;strokeColor=none;fillColor=none;align=left;verticalAlign=middle;spacingLeft=4;spacingRight=4;overflow=hidden;points=[[0,0.5],[1,0.5]];portConstraint=eastwest;rotatable=0;whiteSpace=wrap;html=1;" parent="UyWIYiug9bjws0ROb6PQ-50" vertex="1">
          <mxGeometry y="60" width="180" height="30" as="geometry" />
        </mxCell>
        <mxCell id="UyWIYiug9bjws0ROb6PQ-53" value="Item B &amp;amp; Item C: 0.1" style="text;strokeColor=none;fillColor=none;align=left;verticalAlign=middle;spacingLeft=4;spacingRight=4;overflow=hidden;points=[[0,0.5],[1,0.5]];portConstraint=eastwest;rotatable=0;whiteSpace=wrap;html=1;" parent="UyWIYiug9bjws0ROb6PQ-50" vertex="1">
          <mxGeometry y="90" width="180" height="30" as="geometry" />
        </mxCell>
      </root>
    </mxGraphModel>
  </diagram>
</mxfile>
